<svg width="880" height="220" viewBox="0 0 880 220" fill="none" xmlns="http://www.w3.org/2000/svg">
  <defs>
    <linearGradient id="neon" x1="0" y1="0" x2="880" y2="0" gradientUnits="userSpaceOnUse">
      <stop offset="0" stop-color="#a855f7"/>
      <stop offset="0.5" stop-color="#6366f1"/>
      <stop offset="1" stop-color="#22d3ee"/>
    </linearGradient>
    <linearGradient id="bg" x1="0" y1="0" x2="880" y2="220" gradientUnits="userSpaceOnUse">
      <stop offset="0" stop-color="#120b2e"/>
      <stop offset="1" stop-color="#03121f"/>
    </linearGradient>
    <filter id="glow" x="-50%" y="-50%" width="200%" height="200%">
      <feGaussianBlur stdDeviation="2.6" result="b"/>
      <feMerge><feMergeNode in="b"/><feMergeNode in="SourceGraphic"/></feMerge>
    </filter>
  </defs>
  <rect x="1.5" y="1.5" width="877" height="217" rx="14" fill="url(#bg)" stroke="url(#neon)" stroke-width="1.6"/>
  <text x="856" y="28" text-anchor="end" font-family="Consolas, monospace" font-size="11" fill="#22d3ee" opacity="0.55">KATKI AKTİVİTESİ</text>
  
  <line x1="40" y1="46.0" x2="840" y2="46.0" stroke="#a855f7" stroke-opacity="0.08"/>
<line x1="40" y1="92.2" x2="840" y2="92.2" stroke="#a855f7" stroke-opacity="0.08"/>
<line x1="40" y1="138.4" x2="840" y2="138.4" stroke="#a855f7" stroke-opacity="0.08"/>
<line x1="40" y1="186.0" x2="840" y2="186.0" stroke="#a855f7" stroke-opacity="0.08"/>
  <path d="M 40.0,186.0 Q 40.0,186.0 56.0,186.0 Q 72.0,186.0 88.0,186.0 Q 104.0,186.0 120.0,186.0 Q 136.0,186.0 152.0,186.0 Q 168.0,186.0 184.0,186.0 Q 200.0,186.0 216.0,186.0 Q 232.0,186.0 248.0,186.0 Q 264.0,186.0 280.0,186.0 Q 296.0,186.0 312.0,186.0 Q 328.0,186.0 344.0,186.0 Q 360.0,186.0 376.0,186.0 Q 392.0,186.0 408.0,186.0 Q 424.0,186.0 440.0,183.5 Q 456.0,181.1 472.0,183.5 Q 488.0,186.0 504.0,186.0 Q 520.0,186.0 536.0,186.0 Q 552.0,186.0 568.0,186.0 Q 584.0,186.0 600.0,186.0 Q 616.0,186.0 632.0,186.0 Q 648.0,186.0 664.0,186.0 Q 680.0,186.0 696.0,186.0 Q 712.0,186.0 728.0,183.5 Q 744.0,181.1 760.0,172.5 Q 776.0,163.9 792.0,174.9 Q 808.0,186.0 824.0,116.0 L 840.0,46.0 L 840.0,186.0 L 40.0,186.0 Z" fill="url(#neon)" fill-opacity="0.12" stroke="none"/>
  <path d="M 40.0,186.0 Q 40.0,186.0 56.0,186.0 Q 72.0,186.0 88.0,186.0 Q 104.0,186.0 120.0,186.0 Q 136.0,186.0 152.0,186.0 Q 168.0,186.0 184.0,186.0 Q 200.0,186.0 216.0,186.0 Q 232.0,186.0 248.0,186.0 Q 264.0,186.0 280.0,186.0 Q 296.0,186.0 312.0,186.0 Q 328.0,186.0 344.0,186.0 Q 360.0,186.0 376.0,186.0 Q 392.0,186.0 408.0,186.0 Q 424.0,186.0 440.0,183.5 Q 456.0,181.1 472.0,183.5 Q 488.0,186.0 504.0,186.0 Q 520.0,186.0 536.0,186.0 Q 552.0,186.0 568.0,186.0 Q 584.0,186.0 600.0,186.0 Q 616.0,186.0 632.0,186.0 Q 648.0,186.0 664.0,186.0 Q 680.0,186.0 696.0,186.0 Q 712.0,186.0 728.0,183.5 Q 744.0,181.1 760.0,172.5 Q 776.0,163.9 792.0,174.9 Q 808.0,186.0 824.0,116.0 L 840.0,46.0" fill="none" stroke="url(#neon)" stroke-width="2.4" filter="url(#glow)"
        stroke-dasharray="2080" stroke-dashoffset="2080">
    <animate attributeName="stroke-dashoffset" from="2080" to="0" dur="1.8s" begin="0.1s" fill="freeze"/>
  </path>
  <circle r="4" fill="#22d3ee" filter="url(#glow)">
    <animateMotion dur="7s" begin="2s" repeatCount="indefinite" path="M 40.0,186.0 Q 40.0,186.0 56.0,186.0 Q 72.0,186.0 88.0,186.0 Q 104.0,186.0 120.0,186.0 Q 136.0,186.0 152.0,186.0 Q 168.0,186.0 184.0,186.0 Q 200.0,186.0 216.0,186.0 Q 232.0,186.0 248.0,186.0 Q 264.0,186.0 280.0,186.0 Q 296.0,186.0 312.0,186.0 Q 328.0,186.0 344.0,186.0 Q 360.0,186.0 376.0,186.0 Q 392.0,186.0 408.0,186.0 Q 424.0,186.0 440.0,183.5 Q 456.0,181.1 472.0,183.5 Q 488.0,186.0 504.0,186.0 Q 520.0,186.0 536.0,186.0 Q 552.0,186.0 568.0,186.0 Q 584.0,186.0 600.0,186.0 Q 616.0,186.0 632.0,186.0 Q 648.0,186.0 664.0,186.0 Q 680.0,186.0 696.0,186.0 Q 712.0,186.0 728.0,183.5 Q 744.0,181.1 760.0,172.5 Q 776.0,163.9 792.0,174.9 Q 808.0,186.0 824.0,116.0 L 840.0,46.0"/>
  </circle>
  <text x="40" y="26" font-family="Consolas, monospace" font-size="12" fill="#94a3b8">2025-07-13</text>
  <text x="840" y="26" text-anchor="end" font-family="Consolas, monospace" font-size="12" fill="#94a3b8">2026-07-16</text>
  <text x="440.0" y="26" text-anchor="middle" font-family="Segoe UI, Arial, sans-serif" font-size="13" fill="#e2e8f0">haftalık ort. <tspan fill="#22d3ee" font-weight="700">2.7</tspan> katkı</text>

</svg>